<?xml version="1.0" encoding="UTF-8" standalone="no"?>
<!-- Created with Inkscape (http://www.inkscape.org/) -->

<svg
   version="1.1"
   id="svg39"
   width="400"
   height="400"
   viewBox="0 0 400 400"
   sodipodi:docname="llopislogo.svg"
   inkscape:version="1.1.2 (0a00cf5339, 2022-02-04)"
   xmlns:inkscape="http://www.inkscape.org/namespaces/inkscape"
   xmlns:sodipodi="http://sodipodi.sourceforge.net/DTD/sodipodi-0.dtd"
   xmlns="http://www.w3.org/2000/svg"
   xmlns:svg="http://www.w3.org/2000/svg">
  <defs
     id="defs43" />
  <sodipodi:namedview
     id="namedview41"
     pagecolor="#ffffff"
     bordercolor="#666666"
     borderopacity="1.0"
     inkscape:pageshadow="2"
     inkscape:pageopacity="0.0"
     inkscape:pagecheckerboard="0"
     showgrid="false"
     inkscape:zoom="1.7200001"
     inkscape:cx="183.72092"
     inkscape:cy="162.79069"
     inkscape:window-width="1920"
     inkscape:window-height="939"
     inkscape:window-x="1920"
     inkscape:window-y="32"
     inkscape:window-maximized="1"
     inkscape:current-layer="g45" />
  <g
     inkscape:groupmode="layer"
     inkscape:label="Image"
     id="g45">
    <path
       style="fill:none;stroke-width:1;stroke:#000000;stroke-opacity:1;stroke-miterlimit:4;stroke-dasharray:none"
       d="M 248.25581,98.546512 V 77.034884 h 4.36047 4.36046 v 21.511628 21.511628 h -4.36046 -4.36047 z"
       id="path166" />
    <path
       style="fill:none;stroke-width:1;stroke:#000000;stroke-opacity:1;stroke-miterlimit:4;stroke-dasharray:none"
       d="m 266.56853,118.99101 c -0.1592,-0.1592 -0.28946,-9.6688 -0.28946,-21.132446 V 77.015577 l 15.26163,0.155002 15.26163,0.155002 v 2.906977 2.906977 l -10.71253,0.158859 c -6.8931,0.102219 -10.9952,0.393469 -11.50539,0.816883 -0.57229,0.474964 -0.74608,1.886448 -0.62469,5.073699 l 0.16819,4.415675 10.31976,0.158764 10.31977,0.158765 v 3.184258 3.184262 h -9.81253 c -7.70518,0 -9.95772,0.17494 -10.48859,0.8146 -0.43276,0.52144 -0.6153,2.66607 -0.50724,5.9593 l 0.16883,5.1447 11.9186,0.2907 11.91861,0.2907 v 3.19767 3.19768 l -15.55356,0.0472 c -8.55446,0.026 -15.68382,-0.083 -15.84303,-0.24225 z"
       id="path205" />
    <path
       style="fill:none;stroke-width:1;stroke:#000000;stroke-opacity:1;stroke-miterlimit:4;stroke-dasharray:none"
       d="m 311.9186,118.86324 c -3.98345,-1.55436 -6.56592,-4.00891 -7.89331,-7.50231 -0.61507,-1.61874 -1.11831,-3.20199 -1.11831,-3.51833 0,-0.32387 1.75787,-0.57516 4.02357,-0.57516 3.99426,0 4.02635,0.0127 4.4051,1.7371 0.49706,2.26308 2.51294,3.79624 6.13354,4.66481 7.22471,1.73318 14.45891,-2.50884 12.31244,-7.21983 -1.04941,-2.3032 -3.05974,-3.22933 -11.344,-5.226 -12.08269,-2.912158 -14.36786,-4.859248 -14.36786,-12.242185 0,-3.629819 0.2239,-4.513711 1.75488,-6.927829 5.66607,-8.934451 25.323,-7.815802 29.30003,1.667424 0.40231,0.959303 0.9101,2.463663 1.12843,3.343023 l 0.39695,1.598838 -3.93549,-0.01258 c -3.84305,-0.01229 -3.95599,-0.05584 -4.80759,-1.854047 -1.4867,-3.139217 -3.45083,-4.129401 -8.27518,-4.171776 -5.15771,-0.0453 -7.72766,1.358432 -8.32598,4.54774 -0.76152,4.05927 0.84085,5.099297 11.72467,7.609984 7.50403,1.731032 10.34479,2.90439 12.14393,5.015962 2.05011,2.406136 2.61628,3.899026 2.61628,6.898756 0,5.6875 -3.14995,10.17298 -8.56746,12.19993 -4.27486,1.59943 -13.16391,1.58221 -17.30464,-0.0335 z"
       id="path244" />
    <path
       style="fill:none;stroke-width:1;stroke:#000000;stroke-opacity:1;stroke-miterlimit:4;stroke-dasharray:none"
       d="m 236.89889,318.75 c -0.15065,-0.39971 -0.20785,-8.57558 -0.1271,-18.1686 l 0.14681,-17.44187 h 5.17165 5.17164 l 0.70113,2.61628 c 0.38563,1.43896 0.99517,3.92442 1.35454,5.52326 4.3046,19.15112 4.31434,19.18605 5.34937,19.18605 0.55453,0 1.639,-3.73655 3.62794,-12.5 1.56033,-6.875 3.07862,-13.09926 3.37396,-13.83168 0.50729,-1.25802 0.80242,-1.32234 5.33525,-1.1628 l 4.79825,0.16889 v 18.02326 18.02326 h -2.90698 -2.90698 l -0.003,-13.76277 c -0.002,-7.56953 -0.18051,-13.9402 -0.39736,-14.15706 -0.63111,-0.63111 -1.63444,0.2733 -1.63444,1.47329 0,0.60562 -0.23493,1.7021 -0.52206,2.43662 -0.28714,0.73452 -1.24035,4.73666 -2.11825,8.89364 -0.8779,4.15697 -2.0224,9.25872 -2.54333,11.33721 l -0.94716,3.77907 -3.28201,0.17293 c -3.72698,0.19638 -3.36765,0.65859 -4.88023,-6.27758 -0.52299,-2.39826 -1.16225,-5.27617 -1.42059,-6.39535 -0.25833,-1.11919 -1.14112,-5.14844 -1.96176,-8.95389 -0.82065,-3.80545 -1.60967,-7.03659 -1.75339,-7.18031 -0.14371,-0.14372 -0.54034,-0.0889 -0.88138,0.12192 -0.4118,0.25451 -0.62007,5.15605 -0.62007,14.5931 v 14.20987 h -2.92523 c -1.80649,0 -3.02998,-0.27793 -3.19914,-0.72674 z"
       id="path283" />
    <path
       style="fill:none;stroke-width:1;stroke:#000000;stroke-opacity:1;stroke-miterlimit:4;stroke-dasharray:none"
       d="m 281.5778,318.92429 c -2.47324,-1.50805 -3.08943,-2.83083 -3.08943,-6.63216 0,-3.93931 1.79553,-6.43746 5.27541,-7.33977 1.2555,-0.32554 3.29419,-0.85352 4.53042,-1.17329 1.23622,-0.31977 2.8714,-0.58972 3.63372,-0.59989 1.97758,-0.0264 3.42092,-1.31953 3.42092,-3.06496 0,-2.00308 -1.9864,-3.31189 -5.0265,-3.31189 -1.92956,0 -2.80248,0.36027 -4.15855,1.71635 -1.25875,1.25875 -2.35151,1.75383 -4.09866,1.85692 -1.31026,0.0773 -2.55545,-0.0326 -2.76709,-0.24422 -0.56677,-0.56678 0.97576,-4.03186 2.35596,-5.29234 4.88909,-4.46497 17.6351,-3.16169 19.42984,1.98672 0.38833,1.11396 0.66035,5.79607 0.66035,11.36622 0,5.68749 0.23229,9.61552 0.58139,9.83128 1.408,0.87018 0.33621,1.45348 -2.67071,1.45348 -2.76315,0 -3.29782,-0.17482 -3.55618,-1.16279 -0.3176,-1.21452 -2.1598,-1.59257 -2.79018,-0.57258 -0.67538,1.09279 -4.47633,2.31679 -7.18765,2.3146 -1.6376,-10e-4 -3.41561,-0.44423 -4.54306,-1.13168 z m 11.87055,-4.84093 c 1.58871,-1.58871 2.73637,-6.09539 1.83076,-7.1891 -0.85573,-1.03347 -8.66674,1.15141 -10.00729,2.79922 -1.25925,1.54787 -0.93421,4.41164 0.63717,5.61378 1.56797,1.19954 5.8035,0.51196 7.53936,-1.2239 z"
       id="path322" />
    <path
       style="fill:none;stroke-width:1;stroke:#000000;stroke-opacity:1;stroke-miterlimit:4;stroke-dasharray:none"
       d="m 308.98144,318.73562 c -0.15642,-0.40761 -0.21362,-6.35965 -0.1271,-13.22674 l 0.15729,-12.48562 h 2.61628 c 2.42192,0 2.62994,0.11877 2.80024,1.59883 0.21521,1.87031 1.53607,2.11069 2.42909,0.44207 0.77859,-1.4548 3.54581,-2.913 5.52799,-2.913 1.45962,0 1.50657,0.1072 1.33701,3.05233 l -0.17573,3.05232 -2.35567,0.17315 c -2.98956,0.21974 -5.17174,2.06219 -6.00736,5.0721 -0.35316,1.27209 -0.64357,5.38702 -0.64535,9.14429 l -0.003,6.83139 h -2.63452 c -1.59855,0 -2.74636,-0.29143 -2.91892,-0.74112 z"
       id="path361" />
    <path
       style="fill:none;stroke-width:1;stroke:#000000;stroke-opacity:1;stroke-miterlimit:4;stroke-dasharray:none"
       d="m 328.48837,306.10465 v -13.43286 l 3.05233,0.17573 3.05232,0.17574 v 13.08139 13.0814 l -3.05232,0.17573 -3.05233,0.17573 z"
       id="path400" />
    <path
       style="fill:none;stroke-width:1;stroke:#000000;stroke-opacity:1;stroke-miterlimit:4;stroke-dasharray:none"
       d="m 328.87603,287.65689 c -0.18412,-0.29791 0.5772,-1.89584 1.69182,-3.55096 1.96383,-2.91612 2.10703,-3.00625 4.62471,-2.91102 1.4853,0.0562 2.59814,0.37958 2.59814,0.75505 0,0.36123 -1.11599,1.75203 -2.47997,3.09068 -2.40427,2.35961 -5.75206,3.72077 -6.4347,2.61625 z"
       id="path439" />
    <path
       style="fill:none;stroke-width:1;stroke:#000000;stroke-opacity:1;stroke-miterlimit:4;stroke-dasharray:none"
       d="m 200,320.13277 c -4.59678,-0.99 -8.13953,-4.22307 -8.13953,-7.42805 0,-1.24091 0.25184,-1.36751 2.72034,-1.36751 2.36635,0 2.9629,0.2648 4.58423,2.03488 1.72766,1.88617 2.11521,2.03489 5.30291,2.03489 3.67696,0 4.83438,-0.63717 4.83438,-2.66137 0,-1.64799 -0.78073,-2.2151 -4.65117,-3.37855 -7.99998,-2.4048 -9.34224,-2.93926 -10.51389,-4.18642 -1.76644,-1.88029 -2.07075,-5.78638 -0.65274,-8.37831 1.79521,-3.28139 4.80034,-4.63262 10.29454,-4.62883 6.2119,0.004 8.95276,1.22032 10.59689,4.70156 0.6607,1.39895 1.08212,2.73977 0.93648,2.97959 -0.14563,0.23983 -1.49922,0.43605 -3.00798,0.43605 -2.32029,0 -2.97915,-0.2689 -4.2737,-1.74419 -1.31997,-1.50427 -1.93304,-1.74418 -4.45696,-1.74418 -2.35753,0 -3.10093,0.24907 -3.82384,1.28117 -1.36455,1.94817 -0.0363,3.48962 3.8048,4.41537 6.4392,1.55194 9.22645,2.66016 10.78687,4.28888 1.33738,1.39593 1.60521,2.18635 1.60521,4.7373 0,3.69281 -1.654,6.38858 -4.70081,7.66162 -2.47932,1.03593 -8.48354,1.54105 -11.24603,0.9461 z"
       id="path478" />
    <path
       style="fill:none;stroke-width:1;stroke:#000000;stroke-opacity:1;stroke-miterlimit:4;stroke-dasharray:none"
       d="m 180.06556,319.11595 c -0.22792,-0.22792 -0.4144,-6.25742 -0.4144,-13.3989 v -12.98449 h 3.20859 3.20859 l -0.15626,13.22674 -0.15627,13.22675 -2.63792,0.17215 c -1.45086,0.0947 -2.82441,-0.0143 -3.05233,-0.24225 z"
       id="path517" />
    <path
       style="fill:none;stroke-width:1;stroke:#000000;stroke-opacity:1;stroke-miterlimit:4;stroke-dasharray:none"
       d="m 179.88026,287.25841 c -0.1737,-0.45264 -0.23089,-1.56455 -0.12711,-2.47093 0.17919,-1.56478 0.33542,-1.64795 3.09569,-1.64795 h 2.90697 l 0.17878,2.47094 0.17878,2.47093 h -2.95865 c -2.01511,0 -3.05937,-0.26246 -3.27446,-0.82299 z"
       id="path556" />
    <path
       style="fill:none;stroke-width:1;stroke:#000000;stroke-opacity:1;stroke-miterlimit:4;stroke-dasharray:none"
       d="m 147.8116,311.56071 0.15352,-18.38114 2.48898,-0.22402 c 1.65304,-0.14878 2.56181,0.0202 2.70585,0.50324 0.90342,3.02951 0.8287,2.96427 2.2251,1.9428 5.03785,-3.68519 7.36966,-4.09317 11.71647,-2.04992 3.27619,1.53999 4.199,2.5988 5.59594,6.42066 1.80023,4.92523 1.45444,9.65633 -1.09553,14.98922 -2.46867,5.16284 -11.20015,7.03029 -15.01838,3.21206 -0.78434,-0.78433 -1.67081,-1.27481 -1.96993,-1.08994 -0.29912,0.18486 -0.54385,3.19858 -0.54385,6.69715 v 6.36104 h -3.20584 -3.20585 z m 15.98129,2.69912 c 4.65132,-2.83602 4.88119,-12.12489 0.38753,-15.6596 -2.18979,-1.7225 -5.48113,-1.61244 -7.70352,0.25758 -1.30073,1.09449 -1.92493,2.3078 -2.42397,4.71167 -1.72705,8.31916 3.75699,14.33832 9.73996,10.69035 z"
       id="path595" />
    <path
       style="fill:none;stroke-width:1;stroke:#000000;stroke-opacity:1;stroke-miterlimit:4;stroke-dasharray:none"
       d="m 124.7093,319.82525 c -3.66372,-0.90163 -4.85206,-1.66092 -6.76452,-4.32219 -3.99277,-5.55614 -3.74817,-14.31436 0.53969,-19.32376 2.73507,-3.19532 4.90614,-4.02814 10.50092,-4.02814 4.23355,0 4.82906,0.15209 7.39875,1.88954 4.03268,2.72663 5.43906,5.79827 5.45995,11.92494 0.0276,8.10023 -2.89316,12.26196 -9.7358,13.87226 -3.87648,0.91226 -3.63901,0.91266 -7.39899,-0.0127 z m 6.80404,-5.02784 c 3.1592,-1.44198 5.0602,-6.94723 4.0134,-11.6227 -0.75407,-3.36804 -3.86484,-6.37334 -6.59378,-6.37021 -2.62397,0.003 -5.58469,1.96012 -6.58423,4.35235 -1.07316,2.56845 -1.07316,7.32715 0,9.8956 1.45111,3.47299 5.83538,5.26454 9.16461,3.74496 z"
       id="path634" />
    <path
       style="fill:none;stroke-width:1;stroke:#000000;stroke-opacity:1;stroke-miterlimit:4;stroke-dasharray:none"
       d="m 102.90698,300.87209 v -18.60465 h 3.48837 3.48837 v 18.60465 18.60465 h -3.48837 -3.48837 z"
       id="path673" />
    <path
       style="fill:none;stroke-width:1;stroke:#000000;stroke-opacity:1;stroke-miterlimit:4;stroke-dasharray:none"
       d="m 72.356608,318.74365 c -0.154723,-0.40321 -0.211919,-8.57908 -0.127101,-18.16861 l 0.154214,-17.43551 h 3.197674 3.197675 l 0.290697,15.11628 0.290698,15.11628 9.156977,0.16012 9.156977,0.16011 v 2.89221 2.89221 H 85.156172 c -9.536132,0 -12.585263,-0.17464 -12.799564,-0.73309 z"
       id="path712" />
    <path
       style="fill:none;stroke-width:1;stroke:#000000;stroke-opacity:1;stroke-miterlimit:4;stroke-dasharray:none"
       d="m 145.05814,248.21234 c -15.66435,-2.1155 -29.19729,-6.92973 -40.40698,-14.37442 -21.815616,-14.48841 -34.089006,-35.29486 -37.465016,-63.51253 -1.823577,-15.24198 -0.608637,-28.43859 3.851709,-41.83702 8.303469,-24.94278 28.903363,-44.02295 56.578427,-52.404433 12.33345,-3.735224 16.9355,-4.241996 39.03103,-4.298041 l 18.52711,-0.04699 v 8.607293 8.607293 l -13.66279,0.09335 c -25.72788,0.175791 -28.09374,0.416947 -40.03192,4.080528 -16.23315,4.981621 -30.59075,15.96227 -38.88913,29.7423 -9.990831,16.59045 -11.602965,41.75513 -4.084568,63.75824 6.484483,18.97729 22.518328,34.14144 43.269638,40.92265 8.88136,2.9023 15.77913,3.75761 27.1686,3.36885 20.10433,-0.68622 30.48117,-4.90543 51.52087,-20.94828 17.93783,-13.67766 26.52287,-17.15897 40.66368,-16.48945 12.42934,0.58849 21.51058,4.50403 34.15894,14.72825 17.37823,14.04758 22.43027,17.33699 30.99133,20.17862 4.21246,1.39822 10.8552,2.56672 16.27907,2.8636 l 2.61628,0.1432 0.16139,8.66353 0.1614,8.66353 -6.28626,-0.33164 c -7.0931,-0.37419 -16.48783,-2.46746 -22.8514,-5.09158 -9.09163,-3.74909 -15.19367,-7.815 -31.25486,-20.82576 -11.0255,-8.93147 -17.30542,-11.71762 -26.41129,-11.71762 -8.33173,0 -12.70884,2.02609 -26.1497,12.10424 -19.32953,14.49356 -30.56173,20.39393 -44.34603,23.29534 -1.59883,0.33653 -4.0843,0.89859 -5.52325,1.24903 -2.58617,0.62982 -24.24358,1.26341 -27.61628,0.80792 z"
       id="path751" />
    <path
       style="fill:none;stroke-width:1;stroke:#000000;stroke-opacity:1;stroke-miterlimit:4;stroke-dasharray:none"
       d="m 325.5814,222.09986 c -11.44578,-1.95828 -18.85464,-6.00716 -32.84884,-17.95162 -8.85728,-7.55994 -13.42598,-10.78802 -18.89535,-13.35075 -8.59536,-4.02745 -13.76656,-5.06729 -25.41826,-5.1112 -17.0385,-0.0642 -25.14347,3.16071 -43.18639,17.18363 -11.35776,8.82723 -15.84057,11.59755 -23.95337,14.8029 -9.2657,3.66087 -13.55104,4.38077 -26.04663,4.37565 -10.43466,-0.004 -11.77692,-0.12604 -16.86047,-1.52944 -8.11643,-2.24068 -11.55166,-3.65318 -17.08882,-7.02662 -14.39943,-8.77266 -23.489678,-22.104 -27.476433,-40.29568 -1.288774,-5.88072 -1.443005,-21.91736 -0.267823,-27.84789 4.86299,-24.54102 23.891536,-42.78967 49.484246,-47.456121 3.10613,-0.566357 9.7959,-0.795732 23.25581,-0.797381 l 18.89535,-0.0023 v 8.430232 8.43023 l -19.47675,0.34767 c -21.98714,0.39248 -23.50062,0.63708 -33.13246,5.35465 -3.98444,1.95154 -5.97803,3.445 -10.22934,7.66313 -4.30782,4.27419 -5.72689,6.14944 -7.70442,10.18106 -3.33272,6.7945 -4.72777,12.78507 -4.7387,20.34884 -0.02,13.86221 3.91416,24.98428 11.87796,33.57923 5.35434,5.77868 10.98986,9.19628 19.50836,11.83065 3.80025,1.17523 5.59295,1.35078 13.95349,1.36638 8.30107,0.0155 10.21942,-0.16186 14.24418,-1.31683 7.33539,-2.10501 13.39224,-5.4833 23.33066,-13.01301 19.82125,-15.0173 25.29095,-17.82215 41.09147,-21.07156 6.20958,-1.27702 22.17594,-1.28115 28.89183,-0.008 8.95932,1.69913 15.2724,3.7329 20.34883,6.55542 1.43896,0.80007 3.49934,1.94879 4.57864,2.55272 2.98171,1.66844 9.62093,6.75177 15.7702,12.07447 12.28072,10.62997 18.69608,14.0571 27.91849,14.91424 l 4.05826,0.37717 v 8.63744 8.63744 l -2.76163,-0.0596 c -1.5189,-0.0328 -4.72384,-0.39533 -7.12209,-0.80565 z"
       id="path790" />
    <path
       style="fill:none;stroke-width:1;stroke:#000000;stroke-opacity:1;stroke-miterlimit:4;stroke-dasharray:none"
       d="m 325.79813,195.1419 c -6.94518,-2.4177 -9.89262,-4.41294 -22.89115,-15.49593 -11.18828,-9.53951 -18.22499,-13.60334 -29.32595,-16.93629 -7.12651,-2.13967 -15.0265,-3.11691 -25.17604,-3.11432 -19.32327,0.005 -31.68068,3.9061 -48.20452,15.21792 -3.88684,2.66084 -9.89384,6.77741 -13.34889,9.14795 -11.92084,8.17898 -20.53106,11.24676 -31.61902,11.26569 -21.0414,0.0359 -33.60156,-9.94687 -36.56172,-29.05922 -2.77846,-17.93918 4.28388,-32.93825 18.83798,-40.0083 7.10623,-3.45205 9.52278,-3.7575 29.80323,-3.76709 l 18.18415,-0.009 -0.16089,8.57558 -0.16089,8.57558 -18.02326,0.30258 c -13.41598,0.22522 -18.54343,0.50888 -20.05814,1.10965 -5.62714,2.23186 -9.7459,6.82902 -11.0724,12.35849 -0.92817,3.86906 -0.38153,10.96883 1.16223,15.09489 2.09771,5.60664 5.47969,7.92407 13.5256,9.26814 3.69235,0.61681 5.18615,0.61298 8.43023,-0.0216 7.5398,-1.47493 11.98022,-3.8137 25.39174,-13.37389 18.77689,-13.3848 28.89767,-17.94512 46.48666,-20.94641 8.60154,-1.46773 25.03864,-1.61199 33.8085,-0.29674 18.81821,2.82226 32.64091,9.09162 47.32124,21.46281 11.59798,9.77368 13.90482,11.55475 17.05171,13.16528 1.82955,0.93633 3.84173,1.70242 4.47151,1.70242 0.62978,0 1.30166,0.25339 1.49306,0.56308 0.19141,0.3097 0.40307,4.23432 0.47037,8.72136 l 0.12234,8.15828 -2.61628,-0.008 c -1.43895,-0.005 -4.74258,-0.7484 -7.3414,-1.65308 z"
       id="path829" />
    <path
       style="fill:#800080;stroke:none;stroke-width:3.10759"
       d="m 140.18803,246.5909 c -33.17654,-6.05166 -58.089788,-26.59444 -67.715735,-55.83652 -4.375329,-13.29154 -6.20684,-33.26298 -4.267044,-46.52933 4.743904,-32.44375 26.01168,-56.561771 59.238409,-67.17737 10.94555,-3.496991 18.03703,-4.281461 38.7037,-4.281461 h 18.02928 v 7.712399 7.712398 l -20.76098,0.400159 c -19.47755,0.375421 -21.21844,0.536028 -28.16094,2.597986 -21.2268,6.304478 -37.298049,18.878259 -45.195099,35.359619 -5.423628,11.31926 -6.535771,16.72327 -6.529604,31.72802 0.0057,13.70638 1.387612,21.6596 5.538871,31.87591 7.174605,17.65681 23.867512,32.21663 44.541402,38.84972 4.54386,1.45787 8.35282,1.93022 18.09299,2.24373 24.73097,0.796 34.75311,-2.64145 58.32369,-20.00423 18.37379,-13.53467 25.79179,-16.79651 38.15031,-16.77542 15.58827,0.0266 22.24212,3.06233 43.70631,19.94041 14.59244,11.47458 24.21777,15.89186 38.03105,17.45333 l 4.72775,0.53442 v 7.8485 7.84851 l -6.37219,-0.59557 c -17.69674,-1.65399 -29.12619,-6.85235 -47.76622,-21.72509 -15.98588,-12.75501 -21.96093,-15.69453 -31.90168,-15.69453 -7.68642,0 -12.81707,2.35457 -26.41021,12.12025 -21.1512,15.1956 -29.4158,19.55847 -43.11342,22.7595 -11.12375,2.59953 -29.39159,3.36737 -38.89064,1.63466 z"
       id="path876" />
    <path
       style="fill:#800080;stroke:none;stroke-width:3.10759"
       d="m 327.65354,221.58628 c -11.96905,-1.80017 -18.48149,-5.22319 -34.53312,-18.15106 -12.73765,-10.25881 -21.46288,-15.34993 -29.59982,-17.2713 -2.2611,-0.53392 -8.92106,-0.98198 -14.79991,-0.9957 -17.61031,-0.0411 -24.39744,2.59771 -43.99424,17.10473 -14.72814,10.90287 -17.95376,12.76131 -27.87576,16.06057 -7.48637,2.48936 -8.55025,2.62577 -21.04054,2.6978 -11.5416,0.0666 -13.91197,-0.15677 -19.3221,-1.82042 -21.28585,-6.54554 -35.59147,-21.5768 -41.097786,-43.1824 -1.251088,-4.909 -1.654527,-9.14275 -1.645354,-17.26656 0.01463,-12.95874 1.252476,-18.88766 5.937833,-28.44052 2.787997,-5.68438 4.816247,-8.37005 10.866607,-14.3888 8.54326,-8.49863 14.94582,-12.29764 26.23623,-15.56746 6.93555,-2.008606 8.25187,-2.110209 27.33872,-2.110209 h 20.05234 v 7.310129 7.31012 l -16.23878,0.48901 c -22.14778,0.66694 -26.65413,1.31305 -34.00273,4.8752 -15.85699,7.6865 -24.59509,21.83189 -24.56809,39.77126 0.0336,22.34251 10.53748,38.48849 29.36061,45.13155 4.82385,1.70243 7.06092,1.96575 16.67139,1.96239 16.7504,-0.006 20.38821,-1.51502 42.62447,-17.68296 20.59006,-14.971 28.80371,-17.90137 50.28607,-17.9405 24.53787,-0.0447 32.54861,3.36041 59.33556,25.22155 8.40282,6.85765 15.62435,10.45984 22.15698,11.0522 l 4.84027,0.43889 v 8.10798 c 0,9.08126 0.62514,8.42967 -6.98885,7.28451 z"
       id="path989" />
    <path
       style="fill:#800080;stroke:none;stroke-width:3.10759"
       d="m 327.62453,194.88749 c -6.31329,-1.99552 -11.5241,-5.25688 -21.34864,-13.36176 -15.59429,-12.86472 -20.69089,-15.90249 -33.04698,-19.69725 -6.83776,-2.09999 -8.18176,-2.22667 -24.09711,-2.27119 -15.13997,-0.0424 -17.50695,0.14168 -23.25679,1.80831 -8.94522,2.59283 -18.07965,7.3691 -31.00954,16.21448 -18.7081,12.79826 -25.12242,15.73828 -36.23401,16.60795 -16.17941,1.26632 -29.09983,-4.60915 -35.09095,-15.95738 -3.4731,-6.57866 -4.59994,-12.48585 -4.13588,-21.68136 0.51494,-10.20385 2.65544,-15.71529 8.59494,-22.13066 8.77919,-9.48257 16.22404,-11.47924 42.84559,-11.49092 l 14.21279,-0.006 -0.5524,7.6055 c -0.30382,4.18303 -0.63032,7.70288 -0.72554,7.82188 -0.0952,0.119 -8.31014,0.49131 -18.25537,0.82736 l -18.08224,0.61099 -4.00194,2.4742 c -2.92374,1.80762 -4.64341,3.68914 -6.38291,6.98371 -2.19763,4.16225 -2.34848,5.00593 -1.95898,10.95637 0.79522,12.14854 5.57282,17.26292 17.13475,18.34259 9.17775,0.85703 14.29931,-1.25012 32.27147,-13.27736 16.58974,-11.10211 21.47238,-13.82993 30.65958,-17.12885 9.75621,-3.50324 19.08925,-4.90337 33.14521,-4.97241 13.76359,-0.0676 21.13914,0.91162 31.65536,4.20278 12.57501,3.93547 21.44857,9.21391 36.25111,21.564 4.93396,4.11652 11.09447,8.49054 13.69003,9.72006 l 4.71919,2.23549 0.009,7.6055 c 0.01,8.59367 -0.006,8.60786 -7.0093,6.39421 z"
       id="path1028" />
    <path
       style="fill:#000000;stroke:none;stroke-width:3.10759"
       d="M 249.1318,98.713335 V 77.699522 h 3.7141 3.71409 l -0.21967,20.760983 -0.21967,20.760985 -3.49443,0.25283 -3.49442,0.25283 z"
       id="path1104" />
    <path
       style="fill:#000000;stroke:none;stroke-width:3.10759"
       d="m 269.48168,118.22146 -2.2611,-0.34252 V 97.789229 77.699522 h 14.3888 14.3888 v 2.466651 2.466652 h -10.21899 c -12.19382,0 -12.80309,0.335379 -12.80309,7.047576 v 4.463464 l 3.90553,0.0049 c 2.14804,0.0027 6.97715,0.244025 10.73136,0.536256 6.74983,0.525412 6.82307,0.555108 6.57774,2.667278 l -0.24809,2.135945 -9.40545,0.233937 c -5.39474,0.134181 -9.87982,0.627629 -10.51789,1.157179 -0.77942,0.64686 -1.04054,2.54594 -0.87226,6.3438 l 0.24017,5.42056 11.51104,0.51634 c 6.33107,0.28399 11.60354,0.56149 11.71659,0.61667 0.11306,0.0552 0.20556,1.21031 0.20556,2.56697 v 2.46665 l -12.53882,-0.12319 c -6.89634,-0.0678 -13.5563,-0.27734 -14.7999,-0.46573 z"
       id="path1143" />
    <path
       style="fill:#000000;stroke:none;stroke-width:3.10759"
       d=""
       id="path1182" />
    <path
       style="fill:#000000;stroke:none;stroke-width:3.10759"
       d="m 315.00805,118.77901 c -4.53441,-0.9337 -7.13994,-2.62949 -9.17945,-5.97438 -2.36794,-3.88354 -2.08101,-4.68307 1.68062,-4.68307 2.18309,0 3.28887,0.36647 3.28887,1.09 0,2.54224 4.04683,4.96725 8.85009,5.3033 5.99065,0.41911 10.32323,-2.05331 10.72257,-6.11892 0.35774,-3.64215 -2.26733,-5.36975 -12.35386,-8.13031 -10.88499,-2.979075 -12.97432,-4.810751 -12.97432,-11.374319 0,-3.885971 0.36145,-4.968506 2.45519,-7.353136 2.97459,-3.387872 8.10338,-5.015099 14.18081,-4.499186 7.29734,0.61947 11.6638,3.465696 13.31182,8.67715 0.53223,1.683043 0.31929,1.849989 -2.35973,1.849989 -2.28438,0 -3.48019,-0.599258 -5.33237,-2.672206 -2.23387,-2.500136 -2.73463,-2.672206 -7.77664,-2.672206 -6.88039,0 -9.3323,2.10944 -8.81824,7.586554 0.16527,1.760935 3.80002,3.523406 11.53574,5.593622 4.13155,1.105674 8.60619,2.576194 9.94365,3.267822 7.07402,3.658116 5.952,15.075916 -1.84086,18.732856 -3.52105,1.65231 -10.81462,2.30701 -15.33389,1.37644 z"
       id="path1221" />
    <path
       style="fill:#000000;stroke:none;stroke-width:2.1974"
       d="m 74.7093,318.46994 c -0.639535,-0.15978 -1.355005,-0.58728 -1.589934,-0.95 -0.533213,-0.82325 -0.558015,-10.37578 -0.06096,-23.47925 l 0.380432,-10.02907 h 2.234069 c 1.906229,0 2.245454,0.19196 2.311651,1.30814 0.04267,0.71948 0.23889,7.45639 0.436046,14.97093 l 0.358465,13.66279 9.156977,0.16011 9.156976,0.16011 v 2.31082 2.31082 L 86.482556,318.8279 C 80.6468,318.7908 75.348835,318.62972 74.7093,318.46994 Z"
       id="path1260" />
    <path
       style="fill:#000000;stroke:none;stroke-width:2.1974"
       d="m 103.48837,300.87208 v -18.02325 h 2.90698 2.90697 v 18.02325 18.02326 h -2.90697 -2.90698 z"
       id="path1299" />
    <path
       style="fill:#000000;stroke:none;stroke-width:1.0987"
       d="m 124.56395,319.17754 c -3.20091,-0.89159 -4.53838,-1.78672 -6.11675,-4.09375 -4.84093,-7.07576 -2.85979,-17.93943 3.87418,-21.24433 1.55904,-0.76515 1.93412,-0.82169 6.10027,-0.91962 4.32735,-0.10171 4.47919,-0.0847 6.03191,0.67495 2.23534,1.09365 4.61367,3.35879 5.50508,5.24307 1.48626,3.14169 1.69328,9.53053 0.4303,13.27961 -1.1849,3.51733 -3.37619,5.53693 -7.37994,6.80172 -3.40885,1.07685 -5.29895,1.13467 -8.44505,0.25835 z m 7.29767,-3.93055 c 1.42168,-0.68823 2.44479,-1.92146 3.54859,-4.27739 0.70574,-1.50631 0.78118,-1.99004 0.7814,-5.01031 2.3e-4,-3.0955 -0.0597,-3.45675 -0.8091,-4.87911 -0.98594,-1.87126 -2.59762,-3.53003 -4.14176,-4.26277 -3.21246,-1.52441 -7.80634,0.55017 -9.46673,4.27513 -0.58863,1.32055 -0.6796,1.98888 -0.68221,5.0121 -0.003,3.92453 0.47997,5.50793 2.25157,7.37572 2.13185,2.24761 5.90722,3.0306 8.51824,1.76663 z"
       id="path1338" />
    <path
       style="fill:#000000;stroke:none;stroke-width:1.0987"
       d="m 148.40927,311.55522 c 0.11518,-9.71293 0.23648,-17.69228 0.26955,-17.73188 0.0331,-0.0396 0.86082,-0.15568 1.83944,-0.25797 l 1.77931,-0.18597 0.72475,1.63878 c 0.39861,0.90133 0.9016,1.63879 1.11775,1.63879 0.21615,0 1.30257,-0.60453 2.41425,-1.3434 3.97672,-2.64308 6.01642,-3.05362 9.2187,-1.8555 2.97245,1.11214 4.30588,2.22293 5.47434,4.56034 1.39356,2.78769 2.13639,6.27384 1.90928,8.96046 -0.19426,2.29808 -1.07619,5.42787 -2.08821,7.41066 -1.4344,2.8103 -4.49894,4.64521 -8.14937,4.87949 -2.52634,0.16213 -3.84423,-0.21862 -5.79697,-1.67479 -0.79942,-0.59612 -1.66157,-1.15651 -1.9159,-1.2453 -1.33688,-0.46671 -1.67605,1.12833 -1.70049,7.99699 l -0.0173,4.86919 h -2.64427 -2.64426 z m 14.81747,3.59498 c 1.83296,-0.86654 2.81554,-1.91365 3.78527,-4.03392 2.17776,-4.76153 0.47227,-11.54384 -3.40208,-13.5293 -2.01064,-1.03037 -4.39588,-0.97157 -6.41338,0.1581 -5.50762,3.08393 -5.29907,14.54396 0.3187,17.51203 1.51868,0.80237 3.88166,0.75814 5.71149,-0.10691 z"
       id="path1377" />
    <path
       style="fill:#000000;stroke:none;stroke-width:1.0987"
       d="m 180.58139,287.00581 c -0.37619,-0.3762 -0.44682,-1.43615 -0.16561,-2.48547 0.16265,-0.60693 0.3376,-0.65407 2.42744,-0.65407 h 2.25217 l 0.18486,1.34871 c 0.30861,2.25158 0.41754,2.13966 -2.08258,2.13966 -1.37597,0 -2.40459,-0.13715 -2.61628,-0.34883 z"
       id="path1416" />
    <path
       style="fill:#000000;stroke:none;stroke-width:1.0987"
       d="m 180.42325,315.91569 c -0.10323,-1.55887 -0.18837,-7.24927 -0.18919,-12.64535 l -0.002,-9.81105 h 2.66316 2.66315 l -0.19222,8.76829 c -0.10573,4.82255 -0.19223,10.51296 -0.19223,12.64535 v 3.87706 h -2.28173 -2.28174 z"
       id="path1455" />
    <path
       style="fill:#000000;stroke:none;stroke-width:1.0987"
       d="m 200.84785,319.63007 c -4.12557,-0.53813 -8.406,-4.01492 -8.406,-6.8278 0,-0.72565 0.0378,-0.73833 2.20182,-0.73833 h 2.20181 l 1.64993,1.5594 c 0.90746,0.85767 1.97697,1.73101 2.37668,1.94076 0.93777,0.4921 5.59116,0.50124 7.05447,0.0139 1.68019,-0.55962 2.42355,-2.46303 1.63652,-4.19038 -0.47869,-1.05061 -1.88046,-1.68956 -7.98868,-3.64137 -3.05123,-0.97498 -5.91287,-2.05995 -6.3592,-2.41103 -1.65335,-1.30053 -2.3659,-4.52283 -1.60549,-7.26038 0.42575,-1.53274 2.33304,-3.54659 4.12643,-4.35697 1.42191,-0.64253 1.89814,-0.69458 6.35418,-0.69458 4.78646,0 4.82796,0.006 6.53338,0.87776 1.81575,0.9286 2.82194,2.12724 3.71663,4.42747 l 0.48054,1.23546 h -2.4689 -2.4689 l -1.08979,-1.1144 c -1.86905,-1.91125 -2.41682,-2.14326 -5.08908,-2.15555 -2.86946,-0.0132 -3.98542,0.45139 -4.69965,1.95652 -1.10608,2.33088 0.43824,3.79214 5.35591,5.06785 5.91348,1.53403 8.40802,2.60346 9.81756,4.20883 2.33053,2.65433 1.15195,8.59741 -2.08065,10.49184 -2.15377,1.26219 -7.76419,2.06566 -11.24952,1.61104 z"
       id="path1494" />
    <path
       style="fill:#000000;stroke:none;stroke-width:1.0987"
       d="m 237.6252,318.36627 c -0.19659,-0.5123 -0.28734,-11.63781 -0.19788,-24.26011 l 0.0727,-10.25429 4.70561,0.0799 4.70561,0.0799 0.52013,2.03488 c 0.28607,1.11919 1.51955,6.40585 2.74105,11.74815 2.49066,10.89294 2.94796,12.4517 3.82365,13.03313 0.54315,0.36064 0.67938,0.33981 1.20318,-0.184 0.79873,-0.79873 1.3894,-2.86993 4.11313,-14.42286 1.2816,-5.43604 2.53363,-10.50509 2.78228,-11.26453 l 0.45209,-1.38082 h 4.3371 4.3371 v 17.44186 17.44186 h -2.29679 -2.29679 l -0.10147,-13.4729 c -0.10877,-14.44336 -0.10776,-14.43407 -1.57406,-14.43407 -0.81351,0 -1.57972,1.00349 -1.57972,2.06894 0,0.42724 -0.25331,1.60816 -0.5629,2.62427 -0.30959,1.01612 -1.55308,6.29516 -2.76331,11.73121 -1.21022,5.43604 -2.30689,10.27616 -2.43703,10.75581 l -0.23662,0.87209 -2.7746,0.0827 -2.77459,0.0827 -0.32365,-0.80947 c -0.17801,-0.4452 -1.58292,-6.49987 -3.12203,-13.45481 -1.5391,-6.95495 -2.97429,-13.0705 -3.18931,-13.59012 -0.29801,-0.72018 -0.56895,-0.94477 -1.13972,-0.94477 -1.36089,0 -1.41837,0.56562 -1.5435,15.18895 l -0.1163,13.59012 h -2.30804 c -1.64354,0 -2.35044,-0.11048 -2.45529,-0.38372 z"
       id="path1533" />
    <path
       style="fill:#000000;stroke:none;stroke-width:1.0987"
       d="m 283.10612,318.94919 c -2.70477,-1.01512 -3.75652,-2.46362 -3.97161,-5.46979 -0.20477,-2.86199 0.3428,-4.74528 1.80477,-6.20725 1.0769,-1.0769 1.57031,-1.30698 4.57741,-2.13444 1.85372,-0.51008 4.46042,-1.08157 5.79266,-1.26997 2.04685,-0.28947 2.57454,-0.48211 3.40486,-1.24304 0.7622,-0.69851 1.01607,-1.19741 1.1318,-2.2242 0.13279,-1.1781 0.0481,-1.43885 -0.76992,-2.37052 -1.10264,-1.25585 -2.40713,-1.73301 -4.78516,-1.75036 -1.96946,-0.0144 -2.89261,0.36103 -4.79374,1.94938 -1.32527,1.10724 -2.73911,1.62145 -4.46522,1.62402 -0.90565,10e-4 -1.09012,-0.0992 -1.09012,-0.59421 0,-0.32771 0.21167,-1.01448 0.47037,-1.52616 1.77045,-3.50177 4.72448,-4.90526 10.27144,-4.88006 3.986,0.0181 7.7384,1.2165 9.05665,2.8924 0.981,1.24713 1.16291,2.85363 1.39974,12.36147 0.15406,6.18472 0.34927,9.58593 0.57433,10.00646 0.33889,0.63321 0.32549,0.63706 -2.21288,0.63523 -2.53326,-0.002 -2.55784,-0.009 -3.05054,-0.87472 -0.54555,-0.9587 -1.68313,-1.53332 -2.48042,-1.2529 -0.28119,0.0989 -0.83828,0.46808 -1.23799,0.82041 -0.39971,0.35233 -1.31541,0.87268 -2.03488,1.15633 -1.72943,0.68182 -6.1647,0.88743 -7.59155,0.35192 z m 9.18114,-3.3924 c 2.12644,-1.02939 3.44227,-3.38515 3.83825,-6.87168 0.14573,-1.28313 0.0794,-1.57901 -0.47889,-2.13733 -0.5757,-0.5757 -0.83131,-0.62582 -2.28978,-0.44905 -2.61631,0.31712 -6.85544,1.83724 -8.08326,2.89861 -1.00497,0.86872 -1.09125,1.07046 -1.19793,2.8008 -0.0984,1.59528 -0.0155,2.011 0.5733,2.87785 0.37854,0.55726 1.01137,1.18507 1.40628,1.39512 1.10055,0.58538 4.54809,0.30086 6.23203,-0.51432 z"
       id="path1572" />
    <path
       style="fill:#000000;stroke:none;stroke-width:1.0987"
       d="m 309.75304,318.38662 c -0.36611,-1.18329 -0.44575,-5.48169 -0.26812,-14.47211 l 0.20082,-10.16452 h 1.96542 1.96543 l 0.2008,0.94477 c 0.47513,2.23552 1.93501,2.58347 3.36636,0.80235 1.13257,-1.40933 3.44578,-2.61921 5.00775,-2.61921 h 1.14713 l -0.18676,1.78683 c -0.10272,0.98275 -0.18676,2.09467 -0.18676,2.47093 0,0.61407 -0.13017,0.6841 -1.27159,0.6841 -2.76346,0 -5.47532,1.74501 -6.61198,4.25465 -0.73262,1.61755 -1.11694,5.60824 -1.12302,11.66105 l -0.005,5.01453 h -2.04401 c -1.38144,0 -2.08045,-0.11779 -2.15643,-0.36337 z"
       id="path1611" />
    <path
       style="fill:#000000;stroke:none;stroke-width:1.0987"
       d="m 329.06976,306.10464 v -12.64535 h 2.47093 2.47093 v 12.64535 12.64535 h -2.47093 -2.47093 z"
       id="path1650" />
    <path
       style="fill:#000000;stroke:none;stroke-width:1.0987"
       d="m 329.65115,287.07851 c 0,-0.41492 2.29243,-4.01102 3.02062,-4.7384 0.56678,-0.56615 3.77902,-0.73977 4.09929,-0.22157 0.24791,0.40114 -2.24744,2.9986 -3.89868,4.0582 -1.54252,0.98983 -3.22123,1.45978 -3.22123,0.90177 z"
       id="path1689" />
  </g>
</svg>
